<svg id="visual" viewBox="0 0 900 600" width="900" height="600" xmlns="http://www.w3.org/2000/svg" xmlns:xlink="http://www.w3.org/1999/xlink" version="1.1"><path d="M0 462L21.5 460.8C43 459.7 86 457.3 128.8 456.2C171.7 455 214.3 455 257.2 449C300 443 343 431 385.8 427.5C428.7 424 471.3 429 514.2 433C557 437 600 440 642.8 441C685.7 442 728.3 441 771.2 434C814 427 857 414 878.5 407.5L900 401L900 601L878.5 601C857 601 814 601 771.2 601C728.3 601 685.7 601 642.8 601C600 601 557 601 514.2 601C471.3 601 428.7 601 385.8 601C343 601 300 601 257.2 601C214.3 601 171.7 601 128.8 601C86 601 43 601 21.5 601L0 601Z" fill="#efbfff"></path><path d="M0 483L21.5 484.2C43 485.3 86 487.7 128.8 483.3C171.7 479 214.3 468 257.2 466.2C300 464.3 343 471.7 385.8 470.2C428.7 468.7 471.3 458.3 514.2 456C557 453.7 600 459.3 642.8 466.8C685.7 474.3 728.3 483.7 771.2 481.2C814 478.7 857 464.3 878.5 457.2L900 450L900 601L878.5 601C857 601 814 601 771.2 601C728.3 601 685.7 601 642.8 601C600 601 557 601 514.2 601C471.3 601 428.7 601 385.8 601C343 601 300 601 257.2 601C214.3 601 171.7 601 128.8 601C86 601 43 601 21.5 601L0 601Z" fill="#dda6f6"></path><path d="M0 475L21.5 480.8C43 486.7 86 498.3 128.8 505.2C171.7 512 214.3 514 257.2 514.2C300 514.3 343 512.7 385.8 509.2C428.7 505.7 471.3 500.3 514.2 499.2C557 498 600 501 642.8 500.5C685.7 500 728.3 496 771.2 496C814 496 857 500 878.5 502L900 504L900 601L878.5 601C857 601 814 601 771.2 601C728.3 601 685.7 601 642.8 601C600 601 557 601 514.2 601C471.3 601 428.7 601 385.8 601C343 601 300 601 257.2 601C214.3 601 171.7 601 128.8 601C86 601 43 601 21.5 601L0 601Z" fill="#c98dee"></path><path d="M0 532L21.5 531.5C43 531 86 530 128.8 527.8C171.7 525.7 214.3 522.3 257.2 521.5C300 520.7 343 522.3 385.8 523C428.7 523.7 471.3 523.3 514.2 524.2C557 525 600 527 642.8 525.3C685.7 523.7 728.3 518.3 771.2 520C814 521.7 857 530.3 878.5 534.7L900 539L900 601L878.5 601C857 601 814 601 771.2 601C728.3 601 685.7 601 642.8 601C600 601 557 601 514.2 601C471.3 601 428.7 601 385.8 601C343 601 300 601 257.2 601C214.3 601 171.7 601 128.8 601C86 601 43 601 21.5 601L0 601Z" fill="#b475e6"></path><path d="M0 576L21.5 573.3C43 570.7 86 565.3 128.8 560.7C171.7 556 214.3 552 257.2 549.7C300 547.3 343 546.7 385.8 549.7C428.7 552.7 471.3 559.3 514.2 562.5C557 565.7 600 565.3 642.8 561C685.7 556.7 728.3 548.3 771.2 548.7C814 549 857 558 878.5 562.5L900 567L900 601L878.5 601C857 601 814 601 771.2 601C728.3 601 685.7 601 642.8 601C600 601 557 601 514.2 601C471.3 601 428.7 601 385.8 601C343 601 300 601 257.2 601C214.3 601 171.7 601 128.8 601C86 601 43 601 21.5 601L0 601Z" fill="#9c5dde"></path></svg>